<?xml version="1.0" encoding="UTF-8" standalone="no"?>
<!DOCTYPE svg PUBLIC "-//W3C//DTD SVG 1.1//EN"
 "http://www.w3.org/Graphics/SVG/1.1/DTD/svg11.dtd">
<!-- Generated by graphviz version 12.1.0 (20240811.2233)
 -->
<!-- Title: deployment Pages: 1 -->
<svg width="1610pt" height="1376pt"
 viewBox="0.00 0.00 1610.00 1375.97" xmlns="http://www.w3.org/2000/svg" xmlns:xlink="http://www.w3.org/1999/xlink">
<g id="graph0" class="graph" transform="scale(1 1) rotate(0) translate(4 1371.97)">
<title>deployment</title>
<polygon fill="white" stroke="none" points="-4,4 -4,-1371.97 1606,-1371.97 1606,4 -4,4"/>
<text text-anchor="middle" x="801" y="-7.95" font-family="Times,serif" font-size="14.00">OpenShift Operator Deployment</text>
<g id="clust1" class="cluster">
<title>cluster_0</title>
<polygon fill="none" stroke="black" points="8,-228.35 8,-1359.97 1284,-1359.97 1284,-228.35 8,-228.35"/>
<text text-anchor="middle" x="646" y="-1342.67" font-family="Times,serif" font-size="14.00">OpenShift Cluster</text>
</g>
<g id="clust2" class="cluster">
<title>cluster_namespace_c1</title>
<polygon fill="none" stroke="black" points="658,-645.35 658,-1103.6 1276,-1103.6 1276,-645.35 658,-645.35"/>
<text text-anchor="middle" x="967" y="-1086.3" font-family="Times,serif" font-size="14.00">Namespace C1</text>
</g>
<g id="clust3" class="cluster">
<title>cluster_Cryostat_1</title>
<polygon fill="none" stroke="black" points="666,-653.35 666,-1070.35 1056,-1070.35 1056,-653.35 666,-653.35"/>
<text text-anchor="middle" x="861" y="-1053.05" font-family="Times,serif" font-size="14.00">Cryostat Pod</text>
</g>
<g id="clust5" class="cluster">
<title>cluster_Cryostat_Database_1</title>
<polygon fill="none" stroke="black" points="1064,-896.85 1064,-974.1 1230,-974.1 1230,-896.85 1064,-896.85"/>
<text text-anchor="middle" x="1147" y="-956.8" font-family="Times,serif" font-size="14.00">Cryostat Database</text>
</g>
<g id="clust6" class="cluster">
<title>cluster_Cryostat_Reports_1</title>
<polygon fill="none" stroke="black" points="1064,-811.6 1064,-888.85 1268,-888.85 1268,-811.6 1064,-811.6"/>
<text text-anchor="middle" x="1166" y="-871.55" font-family="Times,serif" font-size="14.00">Cryostat Reports Pod</text>
</g>
<g id="clust7" class="cluster">
<title>cluster_namespace_c2</title>
<polygon fill="none" stroke="black" points="20,-645.35 20,-1103.6 650,-1103.6 650,-645.35 20,-645.35"/>
<text text-anchor="middle" x="335" y="-1086.3" font-family="Times,serif" font-size="14.00">Namespace C2</text>
</g>
<g id="clust8" class="cluster">
<title>cluster_Cryostat_2</title>
<polygon fill="none" stroke="black" points="252,-653.35 252,-1070.35 642,-1070.35 642,-653.35 252,-653.35"/>
<text text-anchor="middle" x="447" y="-1053.05" font-family="Times,serif" font-size="14.00">Cryostat Pod</text>
</g>
<g id="clust10" class="cluster">
<title>cluster_Cryostat_Database_2</title>
<polygon fill="none" stroke="black" points="64,-896.85 64,-974.1 230,-974.1 230,-896.85 64,-896.85"/>
<text text-anchor="middle" x="147" y="-956.8" font-family="Times,serif" font-size="14.00">Cryostat Database</text>
</g>
<g id="clust11" class="cluster">
<title>cluster_Cryostat_Storage_2</title>
<polygon fill="none" stroke="black" points="28,-726.35 28,-803.6 244,-803.6 244,-726.35 28,-726.35"/>
<text text-anchor="middle" x="136" y="-786.3" font-family="Times,serif" font-size="14.00">Cryostat Storage</text>
</g>
<g id="clust13" class="cluster">
<title>cluster_namespace_c0</title>
<polygon fill="none" stroke="black" points="240,-307.35 240,-425.85 498,-425.85 498,-307.35 240,-307.35"/>
<text text-anchor="middle" x="369" y="-408.55" font-family="Times,serif" font-size="14.00">Namespace C0</text>
</g>
<g id="clust14" class="cluster">
<title>cluster_operator</title>
<polygon fill="none" stroke="black" points="248,-315.35 248,-392.6 490,-392.6 490,-315.35 248,-315.35"/>
<text text-anchor="middle" x="369" y="-375.3" font-family="Times,serif" font-size="14.00">Operator Pod</text>
</g>
<g id="clust15" class="cluster">
<title>cluster_namespace_a</title>
<polygon fill="none" stroke="black" points="798,-1174.97 798,-1293.47 954,-1293.47 954,-1174.97 798,-1174.97"/>
<text text-anchor="middle" x="876" y="-1276.17" font-family="Times,serif" font-size="14.00">Namespace A</text>
</g>
<g id="clust16" class="cluster">
<title>cluster_target1</title>
<polygon fill="none" stroke="black" points="806,-1182.97 806,-1260.22 946,-1260.22 946,-1182.97 806,-1182.97"/>
<text text-anchor="middle" x="876" y="-1242.92" font-family="Times,serif" font-size="14.00">Application Pod 1</text>
</g>
<g id="clust17" class="cluster">
<title>cluster_namespace_b</title>
<polygon fill="none" stroke="black" points="962,-1174.97 962,-1293.47 1118,-1293.47 1118,-1174.97 962,-1174.97"/>
<text text-anchor="middle" x="1040" y="-1276.17" font-family="Times,serif" font-size="14.00">Namespace B</text>
</g>
<g id="clust18" class="cluster">
<title>cluster_target2</title>
<polygon fill="none" stroke="black" points="970,-1182.97 970,-1260.22 1110,-1260.22 1110,-1182.97 970,-1182.97"/>
<text text-anchor="middle" x="1040" y="-1242.92" font-family="Times,serif" font-size="14.00">Application Pod 2</text>
</g>
<g id="clust19" class="cluster">
<title>cluster_namespace_y</title>
<polygon fill="none" stroke="black" points="16,-1166.97 16,-1326.72 208,-1326.72 208,-1166.97 16,-1166.97"/>
<text text-anchor="middle" x="112" y="-1309.42" font-family="Times,serif" font-size="14.00">Namespace Y</text>
</g>
<g id="clust20" class="cluster">
<title>cluster_target3</title>
<polygon fill="none" stroke="black" points="24,-1174.97 24,-1293.47 200,-1293.47 200,-1174.97 24,-1174.97"/>
<text text-anchor="middle" x="112" y="-1276.17" font-family="Times,serif" font-size="14.00">Application Pod 3</text>
</g>
<g id="clust21" class="cluster">
<title>cluster_JVM3</title>
<path fill="none" stroke="black" d="M44,-1182.97C44,-1182.97 180,-1182.97 180,-1182.97 186,-1182.97 192,-1188.97 192,-1194.97 192,-1194.97 192,-1248.22 192,-1248.22 192,-1254.22 186,-1260.22 180,-1260.22 180,-1260.22 44,-1260.22 44,-1260.22 38,-1260.22 32,-1254.22 32,-1248.22 32,-1248.22 32,-1194.97 32,-1194.97 32,-1188.97 38,-1182.97 44,-1182.97"/>
<text text-anchor="middle" x="112" y="-1242.92" font-family="Times,serif" font-size="14.00">JVM3</text>
</g>
<g id="clust23" class="cluster">
<title>cluster_namespace_z</title>
<polygon fill="none" stroke="black" points="462,-1166.97 462,-1326.72 654,-1326.72 654,-1166.97 462,-1166.97"/>
<text text-anchor="middle" x="558" y="-1309.42" font-family="Times,serif" font-size="14.00">Namespace Z</text>
</g>
<g id="clust24" class="cluster">
<title>cluster_target4</title>
<polygon fill="none" stroke="black" points="470,-1174.97 470,-1293.47 646,-1293.47 646,-1174.97 470,-1174.97"/>
<text text-anchor="middle" x="558" y="-1276.17" font-family="Times,serif" font-size="14.00">Application Pod 4</text>
</g>
<g id="clust25" class="cluster">
<title>cluster_JVM4</title>
<path fill="none" stroke="black" d="M490,-1182.97C490,-1182.97 626,-1182.97 626,-1182.97 632,-1182.97 638,-1188.97 638,-1194.97 638,-1194.97 638,-1248.22 638,-1248.22 638,-1254.22 632,-1260.22 626,-1260.22 626,-1260.22 490,-1260.22 490,-1260.22 484,-1260.22 478,-1254.22 478,-1248.22 478,-1248.22 478,-1194.97 478,-1194.97 478,-1188.97 484,-1182.97 490,-1182.97"/>
<text text-anchor="middle" x="558" y="-1242.92" font-family="Times,serif" font-size="14.00">JVM4</text>
</g>
<g id="clust28" class="cluster">
<title>cluster_console</title>
<polygon fill="none" stroke="black" points="506,-236.35 506,-628.35 828,-628.35 828,-236.35 506,-236.35"/>
<text text-anchor="middle" x="667" y="-611.05" font-family="Times,serif" font-size="14.00">OpenShift Console</text>
</g>
<g id="clust29" class="cluster">
<title>cluster_console_plugin</title>
<polygon fill="none" stroke="black" points="514,-444.85 514,-595.1 820,-595.1 820,-444.85 514,-444.85"/>
<text text-anchor="middle" x="667" y="-577.8" font-family="Times,serif" font-size="14.00">Cryostat Console Plugin</text>
</g>
<g id="clust31" class="cluster">
<title>cluster_outside</title>
<polygon fill="none" stroke="black" points="1292,-33.25 1292,-595.1 1594,-595.1 1594,-33.25 1292,-33.25"/>
<text text-anchor="middle" x="1443" y="-577.8" font-family="Times,serif" font-size="14.00">Outside</text>
</g>
<g id="clust33" class="cluster">
<title>cluster_legend</title>
<polygon fill="none" stroke="black" points="1341,-1122.6 1341,-1320.6 1544,-1320.6 1544,-1122.6 1341,-1122.6"/>
<text text-anchor="middle" x="1442.5" y="-1303.3" font-family="Times,serif" font-size="14.00">Legend</text>
</g>
<!-- OperatorCRDs -->
<g id="node1" class="node">
<title>OperatorCRDs</title>
<polygon fill="none" stroke="black" points="374,-280.35 254.71,-262.35 374,-244.35 493.29,-262.35 374,-280.35"/>
<text text-anchor="middle" x="374" y="-257.67" font-family="Times,serif" font-size="14.00">OperatorCRDs</text>
</g>
<!-- User -->
<g id="node26" class="node">
<title>User</title>
<ellipse fill="none" stroke="black" cx="1335" cy="-149.67" rx="35.42" ry="35.42"/>
<text text-anchor="middle" x="1335" y="-145" font-family="Times,serif" font-size="14.00">User</text>
</g>
<!-- OperatorCRDs&#45;&gt;User -->
<g id="edge39" class="edge">
<title>OperatorCRDs&#45;&gt;User</title>
<path fill="none" stroke="red" d="M412.58,-249.69C437.8,-242.49 471.59,-233.65 502,-228.35 798.59,-176.63 1161,-157.74 1288.2,-152.42"/>
<polygon fill="red" stroke="red" points="1288.05,-155.93 1297.9,-152.03 1287.77,-148.94 1288.05,-155.93"/>
<text text-anchor="middle" x="711.57" y="-207.05" font-family="Times,serif" font-size="14.00">OpenShift (oc)</text>
</g>
<!-- AuthProxy1 -->
<g id="node2" class="node">
<title>AuthProxy1</title>
<ellipse fill="none" stroke="black" cx="744" cy="-679.35" rx="70.15" ry="18"/>
<text text-anchor="middle" x="744" y="-674.67" font-family="Times,serif" font-size="14.00">AuthProxy1</text>
</g>
<!-- PluginPod1 -->
<g id="node22" class="node">
<title>PluginPod1</title>
<ellipse fill="none" stroke="black" cx="590" cy="-543.85" rx="68.04" ry="18"/>
<text text-anchor="middle" x="590" y="-539.17" font-family="Times,serif" font-size="14.00">PluginPod1</text>
</g>
<!-- AuthProxy1&#45;&gt;PluginPod1 -->
<g id="edge26" class="edge">
<title>AuthProxy1&#45;&gt;PluginPod1</title>
<path fill="none" stroke="red" d="M709.71,-663.43C693.14,-654.2 673.71,-641.61 658,-628.35 637.4,-610.97 616.85,-588.34 603.53,-571.03"/>
<polygon fill="red" stroke="red" points="606.56,-569.24 597.82,-563.24 600.91,-573.38 606.56,-569.24"/>
</g>
<!-- AuthProxy1&#45;&gt;PluginPod1 -->
<g id="edge27" class="edge">
<title>AuthProxy1&#45;&gt;PluginPod1</title>
<path fill="none" stroke="blue" d="M723.04,-661.9C709.05,-652.83 690.86,-640.89 676,-628.35 654.76,-610.43 633.57,-586.93 617.31,-569.43"/>
<polygon fill="blue" stroke="blue" points="620.18,-567.37 610.78,-562.47 615.07,-572.16 620.18,-567.37"/>
</g>
<!-- PluginPod2 -->
<g id="node23" class="node">
<title>PluginPod2</title>
<ellipse fill="none" stroke="black" cx="744" cy="-543.85" rx="68.04" ry="18"/>
<text text-anchor="middle" x="744" y="-539.17" font-family="Times,serif" font-size="14.00">PluginPod2</text>
</g>
<!-- AuthProxy1&#45;&gt;PluginPod2 -->
<g id="edge28" class="edge">
<title>AuthProxy1&#45;&gt;PluginPod2</title>
<path fill="none" stroke="red" d="M739.27,-660.9C736.92,-638.59 736.62,-599.68 738.37,-573.12"/>
<polygon fill="red" stroke="red" points="741.83,-573.65 739.19,-563.39 734.86,-573.06 741.83,-573.65"/>
</g>
<!-- AuthProxy1&#45;&gt;PluginPod2 -->
<g id="edge29" class="edge">
<title>AuthProxy1&#45;&gt;PluginPod2</title>
<path fill="none" stroke="blue" d="M748.73,-660.9C751.08,-638.59 751.38,-599.68 749.63,-573.12"/>
<polygon fill="blue" stroke="blue" points="753.14,-573.06 748.81,-563.39 746.17,-573.65 753.14,-573.06"/>
</g>
<!-- WebClient -->
<g id="node27" class="node">
<title>WebClient</title>
<polygon fill="none" stroke="black" points="1389,-561.85 1300.21,-543.85 1389,-525.85 1477.79,-543.85 1389,-561.85"/>
<text text-anchor="middle" x="1389" y="-539.17" font-family="Times,serif" font-size="14.00">WebClient</text>
</g>
<!-- AuthProxy1&#45;&gt;WebClient -->
<g id="edge40" class="edge">
<title>AuthProxy1&#45;&gt;WebClient</title>
<path fill="none" stroke="red" d="M795.83,-666.79C915.58,-641.24 1210.29,-580.25 1333.52,-555.53"/>
<polygon fill="red" stroke="red" points="1333.94,-559.02 1343.06,-553.62 1332.57,-552.15 1333.94,-559.02"/>
</g>
<!-- AuthProxy1&#45;&gt;WebClient -->
<g id="edge42" class="edge">
<title>AuthProxy1&#45;&gt;WebClient</title>
<path fill="none" stroke="blue" d="M799.01,-667.76C922.03,-643.09 1217.6,-581.92 1337.38,-556.36"/>
<polygon fill="blue" stroke="blue" points="1337.88,-559.83 1346.93,-554.32 1336.42,-552.99 1337.88,-559.83"/>
</g>
<!-- Cryostat1 -->
<g id="node3" class="node">
<title>Cryostat1</title>
<ellipse fill="none" stroke="black" cx="972" cy="-1019.1" rx="60.68" ry="18"/>
<text text-anchor="middle" x="972" y="-1014.42" font-family="Times,serif" font-size="14.00">Cryostat1</text>
</g>
<!-- Cryostat1&#45;&gt;AuthProxy1 -->
<g id="edge4" class="edge">
<title>Cryostat1&#45;&gt;AuthProxy1</title>
<path fill="none" stroke="red" stroke-dasharray="5,2" d="M899.86,-1017.55C821.49,-1015.36 703.93,-1006.64 676,-974.1 640.14,-932.32 651.84,-775.82 676,-726.35 680.78,-716.56 688.76,-708.25 697.65,-701.5"/>
<polygon fill="red" stroke="red" points="899.53,-1021.04 909.61,-1017.79 899.7,-1014.05 899.53,-1021.04"/>
<polygon fill="red" stroke="red" points="699.6,-704.4 705.89,-695.88 695.66,-698.62 699.6,-704.4"/>
</g>
<!-- Cryostat1&#45;&gt;AuthProxy1 -->
<g id="edge5" class="edge">
<title>Cryostat1&#45;&gt;AuthProxy1</title>
<path fill="none" stroke="blue" stroke-dasharray="5,2" d="M899.65,-1017.11C826.36,-1014.29 720.33,-1004.78 694,-974.1 658.14,-932.32 669.84,-775.82 694,-726.35 698.3,-717.54 705.19,-709.93 712.55,-703.57"/>
<polygon fill="blue" stroke="blue" points="899.48,-1020.61 909.6,-1017.45 899.73,-1013.61 899.48,-1020.61"/>
<polygon fill="blue" stroke="blue" points="714.39,-706.57 720.07,-697.63 710.05,-701.08 714.39,-706.57"/>
</g>
<!-- JFRDatasource1 -->
<g id="node4" class="node">
<title>JFRDatasource1</title>
<ellipse fill="none" stroke="black" cx="786" cy="-922.85" rx="92.24" ry="18"/>
<text text-anchor="middle" x="786" y="-918.17" font-family="Times,serif" font-size="14.00">JFRDatasource1</text>
</g>
<!-- Cryostat1&#45;&gt;JFRDatasource1 -->
<g id="edge1" class="edge">
<title>Cryostat1&#45;&gt;JFRDatasource1</title>
<path fill="none" stroke="red" stroke-dasharray="5,2" d="M942.53,-1003.17C911.67,-987.53 862.93,-962.83 828.04,-945.15"/>
<polygon fill="red" stroke="red" points="829.99,-942.22 819.49,-940.82 826.83,-948.46 829.99,-942.22"/>
</g>
<!-- AgentProxy1 -->
<g id="node6" class="node">
<title>AgentProxy1</title>
<ellipse fill="none" stroke="black" cx="972" cy="-922.85" rx="75.94" ry="18"/>
<text text-anchor="middle" x="972" y="-918.17" font-family="Times,serif" font-size="14.00">AgentProxy1</text>
</g>
<!-- Cryostat1&#45;&gt;AgentProxy1 -->
<g id="edge6" class="edge">
<title>Cryostat1&#45;&gt;AgentProxy1</title>
<path fill="none" stroke="red" stroke-dasharray="5,2" d="M972,-989.58C972,-977.92 972,-964.45 972,-952.75"/>
<polygon fill="red" stroke="red" points="968.5,-989.3 972,-999.3 975.5,-989.3 968.5,-989.3"/>
<polygon fill="red" stroke="red" points="975.5,-952.86 972,-942.86 968.5,-952.86 975.5,-952.86"/>
</g>
<!-- CryostatDb1 -->
<g id="node7" class="node">
<title>CryostatDb1</title>
<ellipse fill="none" stroke="black" cx="1147" cy="-922.85" rx="74.88" ry="18"/>
<text text-anchor="middle" x="1147" y="-918.17" font-family="Times,serif" font-size="14.00">CryostatDb1</text>
</g>
<!-- Cryostat1&#45;&gt;CryostatDb1 -->
<g id="edge7" class="edge">
<title>Cryostat1&#45;&gt;CryostatDb1</title>
<path fill="none" stroke="orange" d="M1002.78,-1003.27C1019.78,-994.95 1041.2,-984.22 1060,-974.1 1076.76,-965.08 1095.03,-954.62 1110.49,-945.59"/>
<polygon fill="orange" stroke="orange" points="1112.04,-948.74 1118.89,-940.66 1108.49,-942.7 1112.04,-948.74"/>
</g>
<!-- CryostatReports -->
<g id="node8" class="node">
<title>CryostatReports</title>
<ellipse fill="none" stroke="black" cx="1166" cy="-837.6" rx="93.82" ry="18"/>
<text text-anchor="middle" x="1166" y="-832.92" font-family="Times,serif" font-size="14.00">CryostatReports</text>
</g>
<!-- Cryostat1&#45;&gt;CryostatReports -->
<g id="edge8" class="edge">
<title>Cryostat1&#45;&gt;CryostatReports</title>
<path fill="none" stroke="red" d="M1032.57,-1016.66C1101.77,-1013.58 1208.71,-1003.99 1234,-974.1 1256.18,-947.89 1248.35,-928.04 1234,-896.85 1227.58,-882.9 1215.98,-871.04 1204.17,-861.73"/>
<polygon fill="red" stroke="red" points="1206.52,-859.12 1196.39,-856.02 1202.38,-864.76 1206.52,-859.12"/>
</g>
<!-- CommercialObjectStorage -->
<g id="node28" class="node">
<title>CommercialObjectStorage</title>
<ellipse fill="none" stroke="black" cx="1443" cy="-59.25" rx="143.28" ry="18"/>
<text text-anchor="middle" x="1443" y="-54.58" font-family="Times,serif" font-size="14.00">CommercialObjectStorage</text>
</g>
<!-- Cryostat1&#45;&gt;CommercialObjectStorage -->
<g id="edge47" class="edge">
<title>Cryostat1&#45;&gt;CommercialObjectStorage</title>
<path fill="none" stroke="red" d="M1031.6,-1015.1C1185.09,-1006.57 1582,-979.17 1582,-923.85 1582,-923.85 1582,-923.85 1582,-148.67 1582,-114.48 1551.68,-92.94 1519.36,-79.69"/>
<polygon fill="red" stroke="red" points="1520.84,-76.51 1510.25,-76.21 1518.35,-83.05 1520.84,-76.51"/>
</g>
<!-- GrafanaDashboard1 -->
<g id="node5" class="node">
<title>GrafanaDashboard1</title>
<ellipse fill="none" stroke="black" cx="806" cy="-752.35" rx="111.71" ry="18"/>
<text text-anchor="middle" x="806" y="-747.67" font-family="Times,serif" font-size="14.00">GrafanaDashboard1</text>
</g>
<!-- JFRDatasource1&#45;&gt;GrafanaDashboard1 -->
<g id="edge2" class="edge">
<title>JFRDatasource1&#45;&gt;GrafanaDashboard1</title>
<path fill="none" stroke="red" stroke-dasharray="5,2" d="M788.07,-904.45C791.51,-875.42 798.47,-816.82 802.63,-781.74"/>
<polygon fill="red" stroke="red" points="806.09,-782.25 803.8,-771.9 799.14,-781.42 806.09,-782.25"/>
</g>
<!-- JFRDatasource1&#45;&gt;CommercialObjectStorage -->
<g id="edge48" class="edge">
<title>JFRDatasource1&#45;&gt;CommercialObjectStorage</title>
<path fill="none" stroke="red" d="M835.67,-907.23C851.89,-903.08 870.08,-899.09 887,-896.85 929.42,-891.23 1230.45,-899.08 1272,-888.85 1403.14,-856.55 1544,-888.41 1544,-753.35 1544,-753.35 1544,-753.35 1544,-148.67 1544,-119.05 1519.09,-97.04 1494.02,-82.39"/>
<polygon fill="red" stroke="red" points="1495.86,-79.41 1485.41,-77.67 1492.5,-85.55 1495.86,-79.41"/>
</g>
<!-- GrafanaDashboard1&#45;&gt;AuthProxy1 -->
<g id="edge3" class="edge">
<title>GrafanaDashboard1&#45;&gt;AuthProxy1</title>
<path fill="none" stroke="red" stroke-dasharray="5,2" d="M790.99,-734.16C783.6,-725.7 774.55,-715.33 766.37,-705.96"/>
<polygon fill="red" stroke="red" points="769.08,-703.75 759.87,-698.52 763.81,-708.35 769.08,-703.75"/>
</g>
<!-- CryostatReports&#45;&gt;CommercialObjectStorage -->
<g id="edge49" class="edge">
<title>CryostatReports&#45;&gt;CommercialObjectStorage</title>
<path fill="none" stroke="red" d="M1238.52,-825.93C1338.38,-809.16 1506,-772.62 1506,-716.35 1506,-716.35 1506,-716.35 1506,-148.67 1506,-123.96 1489.47,-101.36 1473.34,-85.19"/>
<polygon fill="red" stroke="red" points="1475.81,-82.71 1466.13,-78.39 1471,-87.8 1475.81,-82.71"/>
</g>
<!-- AuthProxy2 -->
<g id="node9" class="node">
<title>AuthProxy2</title>
<ellipse fill="none" stroke="black" cx="564" cy="-679.35" rx="70.15" ry="18"/>
<text text-anchor="middle" x="564" y="-674.67" font-family="Times,serif" font-size="14.00">AuthProxy2</text>
</g>
<!-- AuthProxy2&#45;&gt;PluginPod1 -->
<g id="edge30" class="edge">
<title>AuthProxy2&#45;&gt;PluginPod1</title>
<path fill="none" stroke="red" d="M557.38,-661.12C557.46,-653.5 558.59,-644.45 560,-636.35 563.75,-614.78 569.35,-590.65 575.12,-572.58"/>
<polygon fill="red" stroke="red" points="578.35,-573.96 578.33,-563.37 571.73,-571.66 578.35,-573.96"/>
</g>
<!-- AuthProxy2&#45;&gt;PluginPod1 -->
<g id="edge31" class="edge">
<title>AuthProxy2&#45;&gt;PluginPod1</title>
<path fill="none" stroke="blue" d="M573.88,-661.12C575.46,-653.5 576.59,-644.45 578,-636.35 581.69,-615.11 587.17,-591.4 590.37,-573.43"/>
<polygon fill="blue" stroke="blue" points="593.79,-574.2 591.9,-563.77 586.88,-573.1 593.79,-574.2"/>
</g>
<!-- AuthProxy2&#45;&gt;PluginPod2 -->
<g id="edge32" class="edge">
<title>AuthProxy2&#45;&gt;PluginPod2</title>
<path fill="none" stroke="red" d="M596.04,-663.05C615.02,-654.45 638.85,-642.57 658,-628.35 680.58,-611.57 701.91,-587.57 717.92,-569.6"/>
<polygon fill="red" stroke="red" points="720.26,-572.23 724.33,-562.44 715.05,-567.56 720.26,-572.23"/>
</g>
<!-- AuthProxy2&#45;&gt;PluginPod2 -->
<g id="edge33" class="edge">
<title>AuthProxy2&#45;&gt;PluginPod2</title>
<path fill="none" stroke="blue" d="M607.55,-664.93C629.42,-656.22 655.42,-643.64 676,-628.35 697.9,-612.08 718.63,-589 731.62,-571.23"/>
<polygon fill="blue" stroke="blue" points="734.35,-573.44 737.15,-563.22 728.59,-569.47 734.35,-573.44"/>
</g>
<!-- AuthProxy2&#45;&gt;WebClient -->
<g id="edge41" class="edge">
<title>AuthProxy2&#45;&gt;WebClient</title>
<path fill="none" stroke="red" d="M595.25,-662.84C612.14,-656.48 633.35,-649.63 653,-645.35 723.73,-629.93 743.18,-637.42 815,-628.35 1002.03,-604.73 1222.89,-570.14 1327.86,-553.9"/>
<polygon fill="red" stroke="red" points="1328.32,-557.37 1337.67,-552.38 1327.25,-550.45 1328.32,-557.37"/>
</g>
<!-- AuthProxy2&#45;&gt;WebClient -->
<g id="edge43" class="edge">
<title>AuthProxy2&#45;&gt;WebClient</title>
<path fill="none" stroke="blue" d="M606.4,-664.69C625.96,-657.86 649.43,-650.05 671,-645.35 741.73,-629.93 761.18,-637.42 833,-628.35 1016.29,-605.2 1232.06,-571.52 1332.48,-554.9"/>
<polygon fill="blue" stroke="blue" points="1332.78,-558.39 1342.07,-553.3 1331.63,-551.49 1332.78,-558.39"/>
</g>
<!-- Cryostat2 -->
<g id="node10" class="node">
<title>Cryostat2</title>
<ellipse fill="none" stroke="black" cx="433" cy="-1019.1" rx="60.68" ry="18"/>
<text text-anchor="middle" x="433" y="-1014.42" font-family="Times,serif" font-size="14.00">Cryostat2</text>
</g>
<!-- Cryostat2&#45;&gt;AuthProxy2 -->
<g id="edge12" class="edge">
<title>Cryostat2&#45;&gt;AuthProxy2</title>
<path fill="none" stroke="red" stroke-dasharray="5,2" d="M437.64,-990.39C439.82,-985.05 442.11,-979.45 444,-974.1 455.83,-940.66 452.65,-930.45 464,-896.85 487.59,-826.99 523.26,-747.79 545.35,-707.31"/>
<polygon fill="red" stroke="red" points="434.49,-988.84 434.04,-999.42 440.99,-991.42 434.49,-988.84"/>
<polygon fill="red" stroke="red" points="548.32,-709.17 550.18,-698.74 542.22,-705.73 548.32,-709.17"/>
</g>
<!-- Cryostat2&#45;&gt;AuthProxy2 -->
<g id="edge13" class="edge">
<title>Cryostat2&#45;&gt;AuthProxy2</title>
<path fill="none" stroke="blue" stroke-dasharray="5,2" d="M454.62,-991.82C457.4,-986.06 459.94,-979.93 462,-974.1 473.83,-940.66 470.65,-930.45 482,-896.85 505.38,-827.61 540.63,-749.2 556.58,-708.4"/>
<polygon fill="blue" stroke="blue" points="451.71,-989.85 450.12,-1000.33 457.89,-993.13 451.71,-989.85"/>
<polygon fill="blue" stroke="blue" points="559.82,-709.7 560.09,-699.11 553.28,-707.23 559.82,-709.7"/>
</g>
<!-- JFRDatasource2 -->
<g id="node11" class="node">
<title>JFRDatasource2</title>
<ellipse fill="none" stroke="black" cx="352" cy="-922.85" rx="92.24" ry="18"/>
<text text-anchor="middle" x="352" y="-918.17" font-family="Times,serif" font-size="14.00">JFRDatasource2</text>
</g>
<!-- Cryostat2&#45;&gt;JFRDatasource2 -->
<g id="edge9" class="edge">
<title>Cryostat2&#45;&gt;JFRDatasource2</title>
<path fill="none" stroke="red" stroke-dasharray="5,2" d="M418.52,-1001.25C406.16,-986.86 388.18,-965.95 374.04,-949.49"/>
<polygon fill="red" stroke="red" points="376.79,-947.32 367.62,-942.02 371.48,-951.88 376.79,-947.32"/>
</g>
<!-- AgentProxy2 -->
<g id="node13" class="node">
<title>AgentProxy2</title>
<ellipse fill="none" stroke="black" cx="558" cy="-922.85" rx="75.94" ry="18"/>
<text text-anchor="middle" x="558" y="-918.17" font-family="Times,serif" font-size="14.00">AgentProxy2</text>
</g>
<!-- Cryostat2&#45;&gt;AgentProxy2 -->
<g id="edge14" class="edge">
<title>Cryostat2&#45;&gt;AgentProxy2</title>
<path fill="none" stroke="red" stroke-dasharray="5,2" d="M463.58,-995.04C482.83,-980.53 507.6,-961.85 526.94,-947.27"/>
<polygon fill="red" stroke="red" points="461.57,-992.17 455.7,-1000.99 465.79,-997.76 461.57,-992.17"/>
<polygon fill="red" stroke="red" points="528.87,-950.2 534.74,-941.38 524.65,-944.61 528.87,-950.2"/>
</g>
<!-- CryostatDb2 -->
<g id="node14" class="node">
<title>CryostatDb2</title>
<ellipse fill="none" stroke="black" cx="147" cy="-922.85" rx="74.88" ry="18"/>
<text text-anchor="middle" x="147" y="-918.17" font-family="Times,serif" font-size="14.00">CryostatDb2</text>
</g>
<!-- Cryostat2&#45;&gt;CryostatDb2 -->
<g id="edge15" class="edge">
<title>Cryostat2&#45;&gt;CryostatDb2</title>
<path fill="none" stroke="orange" d="M374.38,-1014.02C334.26,-1009.73 280.49,-1000.95 236,-983.1 214.2,-974.35 192.2,-959.77 175.53,-947.26"/>
<polygon fill="orange" stroke="orange" points="178.11,-944.83 168.05,-941.5 173.83,-950.38 178.11,-944.83"/>
</g>
<!-- CryostatStorage2 -->
<g id="node15" class="node">
<title>CryostatStorage2</title>
<ellipse fill="none" stroke="black" cx="136" cy="-752.35" rx="100.14" ry="18"/>
<text text-anchor="middle" x="136" y="-747.67" font-family="Times,serif" font-size="14.00">CryostatStorage2</text>
</g>
<!-- Cryostat2&#45;&gt;CryostatStorage2 -->
<g id="edge16" class="edge">
<title>Cryostat2&#45;&gt;CryostatStorage2</title>
<path fill="none" stroke="red" d="M377.69,-1011.23C330.82,-1004.27 268.52,-991.98 251,-974.1 226.4,-948.99 247.95,-929.12 234,-896.85 214.65,-852.06 180.64,-806.6 158.21,-779.18"/>
<polygon fill="red" stroke="red" points="161.14,-777.22 152.05,-771.77 155.75,-781.7 161.14,-777.22"/>
</g>
<!-- GrafanaDashboard2 -->
<g id="node12" class="node">
<title>GrafanaDashboard2</title>
<ellipse fill="none" stroke="black" cx="372" cy="-752.35" rx="111.71" ry="18"/>
<text text-anchor="middle" x="372" y="-747.67" font-family="Times,serif" font-size="14.00">GrafanaDashboard2</text>
</g>
<!-- JFRDatasource2&#45;&gt;GrafanaDashboard2 -->
<g id="edge10" class="edge">
<title>JFRDatasource2&#45;&gt;GrafanaDashboard2</title>
<path fill="none" stroke="red" stroke-dasharray="5,2" d="M354.07,-904.45C357.51,-875.42 364.47,-816.82 368.63,-781.74"/>
<polygon fill="red" stroke="red" points="372.09,-782.25 369.8,-771.9 365.14,-781.42 372.09,-782.25"/>
</g>
<!-- JFRDatasource2&#45;&gt;CryostatStorage2 -->
<g id="edge17" class="edge">
<title>JFRDatasource2&#45;&gt;CryostatStorage2</title>
<path fill="none" stroke="red" d="M338.67,-904.92C319.83,-881.77 283.53,-839.89 246,-811.6 226.9,-797.2 203.75,-784.36 183.62,-774.42"/>
<polygon fill="red" stroke="red" points="185.3,-771.35 174.77,-770.16 182.26,-777.65 185.3,-771.35"/>
</g>
<!-- GrafanaDashboard2&#45;&gt;AuthProxy2 -->
<g id="edge11" class="edge">
<title>GrafanaDashboard2&#45;&gt;AuthProxy2</title>
<path fill="none" stroke="red" stroke-dasharray="5,2" d="M415.09,-735.42C444.66,-724.48 483.97,-709.94 514.78,-698.55"/>
<polygon fill="red" stroke="red" points="515.71,-701.94 523.87,-695.19 513.28,-695.37 515.71,-701.94"/>
</g>
<!-- OperatorControllers -->
<g id="node16" class="node">
<title>OperatorControllers</title>
<ellipse fill="none" stroke="black" cx="369" cy="-341.35" rx="112.76" ry="18"/>
<text text-anchor="middle" x="369" y="-336.67" font-family="Times,serif" font-size="14.00">OperatorControllers</text>
</g>
<!-- OperatorControllers&#45;&gt;OperatorCRDs -->
<g id="edge38" class="edge">
<title>OperatorControllers&#45;&gt;OperatorCRDs</title>
<path fill="none" stroke="red" d="M370.62,-315.35C371.11,-307.79 371.66,-299.42 372.16,-291.66"/>
<polygon fill="red" stroke="red" points="375.63,-292.2 372.79,-282 368.65,-291.75 375.63,-292.2"/>
</g>
<!-- JVM1 -->
<g id="node17" class="node">
<title>JVM1</title>
<ellipse fill="none" stroke="black" cx="900" cy="-1208.97" rx="38.06" ry="18"/>
<text text-anchor="middle" x="900" y="-1204.3" font-family="Times,serif" font-size="14.00">JVM1</text>
</g>
<!-- JVM1&#45;&gt;Cryostat1 -->
<g id="edge18" class="edge">
<title>JVM1&#45;&gt;Cryostat1</title>
<path fill="none" stroke="green" d="M906.52,-1190.97C918.93,-1158.58 946.08,-1087.74 961.23,-1048.2"/>
<polygon fill="green" stroke="green" points="964.49,-1049.48 964.8,-1038.89 957.95,-1046.97 964.49,-1049.48"/>
</g>
<!-- JVM2 -->
<g id="node18" class="node">
<title>JVM2</title>
<ellipse fill="none" stroke="black" cx="1016" cy="-1208.97" rx="38.06" ry="18"/>
<text text-anchor="middle" x="1016" y="-1204.3" font-family="Times,serif" font-size="14.00">JVM2</text>
</g>
<!-- JVM2&#45;&gt;Cryostat1 -->
<g id="edge19" class="edge">
<title>JVM2&#45;&gt;Cryostat1</title>
<path fill="none" stroke="green" d="M1011.94,-1190.64C1004.34,-1158.2 987.92,-1088.07 978.67,-1048.59"/>
<polygon fill="green" stroke="green" points="982.08,-1047.81 976.4,-1038.87 975.27,-1049.4 982.08,-1047.81"/>
</g>
<!-- JVM3_Agent -->
<g id="node19" class="node">
<title>JVM3_Agent</title>
<ellipse fill="none" stroke="black" cx="112" cy="-1208.97" rx="72.25" ry="18"/>
<text text-anchor="middle" x="112" y="-1204.3" font-family="Times,serif" font-size="14.00">JVM3_Agent</text>
</g>
<!-- JVM3_Agent&#45;&gt;AuthProxy2 -->
<g id="edge20" class="edge">
<title>JVM3_Agent&#45;&gt;AuthProxy2</title>
<path fill="none" stroke="red" d="M89.65,-1182.86C61.56,-1148.61 17,-1084.18 17,-1020.1 17,-1020.1 17,-1020.1 17,-751.35 17,-739.81 15.11,-733.71 24,-726.35 58.54,-697.77 340.95,-686.25 483.02,-682.23"/>
<polygon fill="red" stroke="red" points="86.65,-1184.73 95.76,-1190.13 92.01,-1180.23 86.65,-1184.73"/>
<polygon fill="red" stroke="red" points="482.83,-685.73 492.73,-681.96 482.64,-678.74 482.83,-685.73"/>
</g>
<!-- JVM4_Agent -->
<g id="node20" class="node">
<title>JVM4_Agent</title>
<ellipse fill="none" stroke="black" cx="558" cy="-1208.97" rx="72.25" ry="18"/>
<text text-anchor="middle" x="558" y="-1204.3" font-family="Times,serif" font-size="14.00">JVM4_Agent</text>
</g>
<!-- JVM4_Agent&#45;&gt;AgentProxy2 -->
<g id="edge21" class="edge">
<title>JVM4_Agent&#45;&gt;AgentProxy2</title>
<path fill="none" stroke="red" d="M558,-1179.3C558,-1124.84 558,-1007.03 558,-952.55"/>
<polygon fill="red" stroke="red" points="554.5,-1179.12 558,-1189.12 561.5,-1179.12 554.5,-1179.12"/>
<polygon fill="red" stroke="red" points="561.5,-952.84 558,-942.84 554.5,-952.84 561.5,-952.84"/>
</g>
<!-- PluginService -->
<g id="node21" class="node">
<title>PluginService</title>
<ellipse fill="none" stroke="black" cx="731" cy="-470.85" rx="80.67" ry="18"/>
<text text-anchor="middle" x="731" y="-466.17" font-family="Times,serif" font-size="14.00">PluginService</text>
</g>
<!-- ConsoleService -->
<g id="node24" class="node">
<title>ConsoleService</title>
<ellipse fill="none" stroke="black" cx="731" cy="-341.35" rx="88.04" ry="18"/>
<text text-anchor="middle" x="731" y="-336.67" font-family="Times,serif" font-size="14.00">ConsoleService</text>
</g>
<!-- PluginService&#45;&gt;ConsoleService -->
<g id="edge36" class="edge">
<title>PluginService&#45;&gt;ConsoleService</title>
<path fill="none" stroke="red" d="M726.18,-452.39C723.96,-431.41 723.65,-395.91 725.26,-370.92"/>
<polygon fill="red" stroke="red" points="728.74,-371.36 726.08,-361.11 721.76,-370.78 728.74,-371.36"/>
</g>
<!-- PluginService&#45;&gt;ConsoleService -->
<g id="edge37" class="edge">
<title>PluginService&#45;&gt;ConsoleService</title>
<path fill="none" stroke="blue" d="M735.82,-452.39C738.04,-431.41 738.35,-395.91 736.74,-370.92"/>
<polygon fill="blue" stroke="blue" points="740.24,-370.78 735.92,-361.11 733.26,-371.36 740.24,-370.78"/>
</g>
<!-- PluginPod1&#45;&gt;PluginService -->
<g id="edge22" class="edge">
<title>PluginPod1&#45;&gt;PluginService</title>
<path fill="none" stroke="red" d="M615.9,-526.92C635.07,-516.67 661.55,-503.26 684.33,-492.24"/>
<polygon fill="red" stroke="red" points="685.63,-495.5 693.13,-488.02 682.6,-489.19 685.63,-495.5"/>
</g>
<!-- PluginPod1&#45;&gt;PluginService -->
<g id="edge23" class="edge">
<title>PluginPod1&#45;&gt;PluginService</title>
<path fill="none" stroke="blue" d="M624.81,-528.14C645.9,-518.16 672.68,-504.79 694.12,-493.58"/>
<polygon fill="blue" stroke="blue" points="695.62,-496.75 702.83,-488.99 692.35,-490.56 695.62,-496.75"/>
</g>
<!-- PluginPod2&#45;&gt;PluginService -->
<g id="edge24" class="edge">
<title>PluginPod2&#45;&gt;PluginService</title>
<path fill="none" stroke="red" d="M734.97,-525.66C732.77,-517.99 730.83,-508.74 729.55,-500.09"/>
<polygon fill="red" stroke="red" points="733.05,-499.92 728.43,-490.38 726.1,-500.72 733.05,-499.92"/>
</g>
<!-- PluginPod2&#45;&gt;PluginService -->
<g id="edge25" class="edge">
<title>PluginPod2&#45;&gt;PluginService</title>
<path fill="none" stroke="blue" d="M746.73,-525.66C746.12,-517.9 744.65,-508.53 742.73,-499.8"/>
<polygon fill="blue" stroke="blue" points="746.19,-499.19 740.35,-490.35 739.4,-500.9 746.19,-499.19"/>
</g>
<!-- PluginUI -->
<g id="node25" class="node">
<title>PluginUI</title>
<ellipse fill="none" stroke="black" cx="756" cy="-262.35" rx="55.42" ry="18"/>
<text text-anchor="middle" x="756" y="-257.67" font-family="Times,serif" font-size="14.00">PluginUI</text>
</g>
<!-- ConsoleService&#45;&gt;PluginUI -->
<g id="edge34" class="edge">
<title>ConsoleService&#45;&gt;PluginUI</title>
<path fill="none" stroke="red" d="M730.91,-322.88C733,-313.39 736.63,-301.45 740.61,-290.76"/>
<polygon fill="red" stroke="red" points="743.79,-292.21 744.26,-281.63 737.3,-289.61 743.79,-292.21"/>
</g>
<!-- ConsoleService&#45;&gt;PluginUI -->
<g id="edge35" class="edge">
<title>ConsoleService&#45;&gt;PluginUI</title>
<path fill="none" stroke="blue" d="M742.27,-323.26C746.29,-313.95 750.38,-302.2 753.37,-291.58"/>
<polygon fill="blue" stroke="blue" points="756.7,-292.68 755.75,-282.12 749.91,-290.96 756.7,-292.68"/>
</g>
<!-- PluginUI&#45;&gt;User -->
<g id="edge45" class="edge">
<title>PluginUI&#45;&gt;User</title>
<path fill="none" stroke="red" d="M801.87,-251.82C910.07,-230.42 1179.84,-178.87 1288.58,-158.83"/>
<polygon fill="red" stroke="red" points="1289.12,-162.29 1298.32,-157.04 1287.86,-155.41 1289.12,-162.29"/>
</g>
<!-- PluginUI&#45;&gt;User -->
<g id="edge46" class="edge">
<title>PluginUI&#45;&gt;User</title>
<path fill="none" stroke="blue" d="M803.79,-252.94C913.46,-232.72 1181.65,-181.47 1289.29,-160.18"/>
<polygon fill="blue" stroke="blue" points="1289.79,-163.64 1298.92,-158.26 1288.43,-156.78 1289.79,-163.64"/>
</g>
<!-- User&#45;&gt;CommercialObjectStorage -->
<g id="edge50" class="edge">
<title>User&#45;&gt;CommercialObjectStorage</title>
<path fill="none" stroke="red" d="M1362.25,-126.36C1377.71,-113.7 1397.09,-97.84 1412.99,-84.82"/>
<polygon fill="red" stroke="red" points="1415.2,-87.54 1420.72,-78.49 1410.76,-82.12 1415.2,-87.54"/>
</g>
<!-- WebClient&#45;&gt;User -->
<g id="edge44" class="edge">
<title>WebClient&#45;&gt;User</title>
<path fill="none" stroke="red" d="M1378.34,-527.56C1369.72,-513.69 1359,-492.32 1359,-471.85 1359,-471.85 1359,-471.85 1359,-261.35 1359,-239.06 1354.29,-214.8 1349.05,-194.7"/>
<polygon fill="red" stroke="red" points="1352.45,-193.86 1346.42,-185.15 1345.7,-195.72 1352.45,-193.86"/>
<text text-anchor="middle" x="1406.62" y="-336.67" font-family="Times,serif" font-size="14.00">Web Browser</text>
</g>
<!-- key -->
<g id="node29" class="node">
<title>key</title>
<text text-anchor="start" x="1396.12" y="-1268.05" font-family="Times,serif" font-size="14.00">HTTP</text>
<text text-anchor="start" x="1386.38" y="-1246.8" font-family="Times,serif" font-size="14.00">HTTPS</text>
<text text-anchor="start" x="1412.62" y="-1225.55" font-family="Times,serif" font-size="14.00">WS</text>
<text text-anchor="start" x="1403.62" y="-1204.3" font-family="Times,serif" font-size="14.00">WSS</text>
<text text-anchor="start" x="1367.62" y="-1183.05" font-family="Times,serif" font-size="14.00">JMX+TLS</text>
<text text-anchor="start" x="1359.38" y="-1161.8" font-family="Times,serif" font-size="14.00">JDBC+TLS</text>
<text text-anchor="start" x="1395.38" y="-1140.55" font-family="Times,serif" font-size="14.00">Other</text>
</g>
<!-- key2 -->
<g id="node30" class="node">
<title>key2</title>
<text text-anchor="start" x="1506.75" y="-1268.05" font-family="Times,serif" font-size="14.00"> </text>
<text text-anchor="start" x="1506.75" y="-1246.8" font-family="Times,serif" font-size="14.00"> </text>
<text text-anchor="start" x="1506.75" y="-1225.55" font-family="Times,serif" font-size="14.00"> </text>
<text text-anchor="start" x="1506.75" y="-1204.3" font-family="Times,serif" font-size="14.00"> </text>
<text text-anchor="start" x="1506.75" y="-1183.05" font-family="Times,serif" font-size="14.00"> </text>
<text text-anchor="start" x="1506.75" y="-1161.8" font-family="Times,serif" font-size="14.00"> </text>
<text text-anchor="start" x="1506.75" y="-1140.55" font-family="Times,serif" font-size="14.00"> </text>
</g>
<!-- key&#45;&gt;key2 -->
<g id="edge51" class="edge">
<title>key:e&#45;&gt;key2:w</title>
<path fill="none" stroke="red" stroke-dasharray="5,2" d="M1439.62,-1272.72C1463.89,-1272.72 1472.66,-1272.72 1492.33,-1272.72"/>
<polygon fill="red" stroke="red" points="1492.24,-1276.22 1502.24,-1272.72 1492.24,-1269.22 1492.24,-1276.22"/>
</g>
<!-- key&#45;&gt;key2 -->
<g id="edge52" class="edge">
<title>key:e&#45;&gt;key2:w</title>
<path fill="none" stroke="red" d="M1439.62,-1251.47C1463.89,-1251.47 1472.66,-1251.47 1492.33,-1251.47"/>
<polygon fill="red" stroke="red" points="1492.24,-1254.97 1502.24,-1251.47 1492.24,-1247.97 1492.24,-1254.97"/>
</g>
<!-- key&#45;&gt;key2 -->
<g id="edge53" class="edge">
<title>key:e&#45;&gt;key2:w</title>
<path fill="none" stroke="blue" stroke-dasharray="5,2" d="M1439.62,-1230.22C1463.89,-1230.22 1472.66,-1230.22 1492.33,-1230.22"/>
<polygon fill="blue" stroke="blue" points="1492.24,-1233.72 1502.24,-1230.22 1492.24,-1226.72 1492.24,-1233.72"/>
</g>
<!-- key&#45;&gt;key2 -->
<g id="edge54" class="edge">
<title>key:e&#45;&gt;key2:w</title>
<path fill="none" stroke="blue" d="M1439.62,-1208.97C1463.89,-1208.97 1472.66,-1208.97 1492.33,-1208.97"/>
<polygon fill="blue" stroke="blue" points="1492.24,-1212.47 1502.24,-1208.97 1492.24,-1205.47 1492.24,-1212.47"/>
</g>
<!-- key&#45;&gt;key2 -->
<g id="edge55" class="edge">
<title>key:e&#45;&gt;key2:w</title>
<path fill="none" stroke="green" d="M1439.62,-1187.72C1463.89,-1187.72 1472.66,-1187.72 1492.33,-1187.72"/>
<polygon fill="green" stroke="green" points="1492.24,-1191.22 1502.24,-1187.72 1492.24,-1184.22 1492.24,-1191.22"/>
</g>
<!-- key&#45;&gt;key2 -->
<g id="edge56" class="edge">
<title>key:e&#45;&gt;key2:w</title>
<path fill="none" stroke="orange" d="M1439.62,-1166.47C1463.89,-1166.47 1472.66,-1166.47 1492.33,-1166.47"/>
<polygon fill="orange" stroke="orange" points="1492.24,-1169.97 1502.24,-1166.47 1492.24,-1162.97 1492.24,-1169.97"/>
</g>
<!-- key&#45;&gt;key2 -->
<g id="edge57" class="edge">
<title>key:e&#45;&gt;key2:w</title>
<path fill="none" stroke="black" stroke-dasharray="5,2" d="M1439.62,-1145.22C1463.89,-1145.22 1472.66,-1145.22 1492.33,-1145.22"/>
<polygon fill="black" stroke="black" points="1492.24,-1148.72 1502.24,-1145.22 1492.24,-1141.72 1492.24,-1148.72"/>
</g>
</g>
</svg>
